<svg width="1920" height="2621" viewBox="0 0 1920 2621" fill="none" xmlns="http://www.w3.org/2000/svg">
<g opacity="0.6">
<circle cx="383.44" cy="383.44" r="383.44" transform="matrix(-0.866025 0.5 0.5 0.866025 1220.5 1380.79)" stroke="#66747F" stroke-opacity="0.5" stroke-width="1.47477"/>
<circle cx="574.791" cy="574.791" r="574.791" transform="matrix(-0.866025 0.5 0.5 0.866025 1312.27 0.37915)" stroke="#66747F" stroke-opacity="0.5" stroke-width="1.47477"/>
<circle cx="191.72" cy="191.72" r="191.72" transform="matrix(-0.866025 0.5 0.5 0.866025 1622.3 926.407)" stroke="#66747F" stroke-opacity="0.5" stroke-width="1.47477"/>
<circle cx="191.72" cy="191.72" r="191.72" transform="matrix(-0.866025 0.5 0.5 0.866025 670.948 812.382)" stroke="#66747F" stroke-opacity="0.5" stroke-width="1.47477"/>
<circle cx="191.72" cy="191.72" r="191.72" transform="matrix(-0.866025 0.5 0.5 0.866025 268.706 1266)" stroke="#66747F" stroke-opacity="0.5" stroke-width="1.47477"/>
<circle cx="191.72" cy="191.72" r="191.72" transform="matrix(-0.866025 0.5 0.5 0.866025 268.706 1266)" stroke="#66747F" stroke-opacity="0.5" stroke-width="1.47477"/>
<circle cx="191.72" cy="191.72" r="191.72" transform="matrix(-0.866025 0.5 0.5 0.866025 268.706 1266)" stroke="#66747F" stroke-opacity="0.5" stroke-width="1.47477"/>
<circle cx="191.72" cy="191.72" r="191.72" transform="matrix(-0.866025 0.5 0.5 0.866025 1482.32 1450.83)" stroke="#66747F" stroke-opacity="0.5" stroke-width="1.47477"/>
<circle cx="95.8599" cy="95.8599" r="95.8599" transform="matrix(-0.866025 0.5 0.5 0.866025 329.477 1562.98)" stroke="#66747F" stroke-opacity="0.5" stroke-width="1.47477"/>
<circle cx="243.018" cy="838.068" r="4.4243" transform="rotate(-30 243.018 838.068)" fill="#66747F"/>
<circle cx="575.089" cy="646.347" r="4.4243" transform="rotate(-30 575.089 646.347)" fill="#66747F"/>
<circle cx="907.155" cy="454.628" r="4.4243" transform="rotate(-30 907.155 454.628)" fill="#66747F"/>
<circle cx="1239.23" cy="262.908" r="4.4243" transform="rotate(-30 1239.23 262.908)" fill="#66747F"/>
<circle cx="102.671" cy="1361.86" r="4.4243" transform="rotate(-30 102.671 1361.86)" fill="#66747F"/>
<circle cx="294.39" cy="1693.92" r="4.4243" transform="rotate(-30 294.39 1693.92)" fill="#66747F"/>
<circle cx="486.11" cy="2025.99" r="4.4243" transform="rotate(-30 486.11 2025.99)" fill="#66747F"/>
<circle cx="677.831" cy="2358.06" r="4.4243" transform="rotate(-30 677.831 2358.06)" fill="#66747F"/>
<circle cx="434.739" cy="1170.14" r="4.4243" transform="rotate(-30 434.739 1170.14)" fill="#66747F"/>
<circle cx="626.459" cy="1502.2" r="4.4243" transform="rotate(-30 626.459 1502.2)" fill="#66747F"/>
<circle cx="818.178" cy="1834.27" r="4.4243" transform="rotate(-30 818.178 1834.27)" fill="#66747F"/>
<circle cx="1009.9" cy="2166.34" r="4.4243" transform="rotate(-30 1009.9 2166.34)" fill="#66747F"/>
<circle cx="766.809" cy="978.415" r="4.4243" transform="rotate(-30 766.809 978.415)" fill="#66747F"/>
<circle cx="958.528" cy="1310.48" r="4.4243" transform="rotate(-30 958.528 1310.48)" fill="#66747F"/>
<circle cx="1150.25" cy="1642.55" r="4.4243" transform="rotate(-30 1150.25 1642.55)" fill="#66747F"/>
<circle cx="1341.97" cy="1974.62" r="4.4243" transform="rotate(-30 1341.97 1974.62)" fill="#66747F"/>
<circle cx="1098.87" cy="786.697" r="4.4243" transform="rotate(-30 1098.87 786.697)" fill="#66747F"/>
<circle cx="1290.59" cy="1118.77" r="4.4243" transform="rotate(-30 1290.59 1118.77)" fill="#66747F"/>
<circle cx="1482.32" cy="1450.83" r="4.4243" transform="rotate(-30 1482.32 1450.83)" fill="#66747F"/>
<circle cx="1674.04" cy="1782.9" r="4.4243" transform="rotate(-30 1674.04 1782.9)" fill="#66747F"/>
<circle cx="1430.94" cy="594.977" r="4.4243" transform="rotate(-30 1430.94 594.977)" fill="#66747F"/>
<circle cx="1622.66" cy="927.045" r="4.4243" transform="rotate(-30 1622.66 927.045)" fill="#66747F"/>
<circle cx="1814.38" cy="1259.11" r="4.4243" transform="rotate(-30 1814.38 1259.11)" fill="#66747F"/>
</g>
</svg>
