<svg width="144" height="26" viewBox="0 0 144 26" fill="none" xmlns="http://www.w3.org/2000/svg">
<path fill-rule="evenodd" clip-rule="evenodd" d="M125.887 0.93097C122.267 2.08825 119.838 4.07596 118.262 7.17081C114.822 13.92 117.405 21.3929 124.267 24.5494C126.089 25.3874 126.792 25.5 130.195 25.5C133.71 25.5 134.251 25.4062 136.224 24.456C138.979 23.1288 141.038 21.1086 142.276 18.5188C143.126 16.7407 143.25 16.0221 143.25 12.8739C143.25 9.4482 143.186 9.15131 141.987 6.98142C140.587 4.44825 138.601 2.65282 135.866 1.44936C133.604 0.453702 128.251 0.175566 125.887 0.93097ZM0.75 3.13369V5.47855H3.32419H5.89839V15.2187V24.9589H8.84032H11.7823V15.2187V5.47855H14.5403H17.2984V3.13369V0.788835H9.02419H0.75V3.13369ZM22.079 12.8739V24.9589H28.8823H35.6855V22.614V20.2692H31.8242H27.9629V10.529V0.788835H25.021H22.079V12.8739ZM37.8919 3.13369V5.47855H40.4661H43.0403V15.2187V24.9589H45.9822H48.9242V15.2187V5.47855H51.6822H54.4403V3.13369V0.788835H46.1661H37.8919V3.13369ZM69.8855 12.8739V24.9589H72.8274H75.7693V20.6299V16.301H78.723C84.5757 16.301 87.547 13.7191 87.529 8.64951C87.515 4.71593 85.6572 2.11206 82.2048 1.1871C81.3958 0.970291 78.2932 0.792082 75.3097 0.791L69.8855 0.788835V12.8739ZM93.4209 12.8428V24.9589H96.3629H99.3048V20.3615V15.7642L102.435 20.3615L105.565 24.9589H109.072H112.579L111.485 23.4257C110.884 22.5823 109.232 20.3579 107.814 18.4824L105.238 15.0726L107.012 14.0788C111.434 11.6008 111.477 5.04962 107.089 2.05614C105.497 0.970652 105.488 0.969209 99.4582 0.847998L93.4209 0.726787V12.8428ZM99.3048 8.41142V11.705L101.039 11.5131C103.141 11.2808 104.459 10.0178 104.441 8.25413C104.422 6.30718 102.883 5.1178 100.384 5.1178H99.3048V8.41142ZM75.7693 8.5016V11.6112H77.4426C79.2861 11.6112 81.0707 10.8764 81.4248 9.97165C81.8533 8.87606 81.6543 7.36345 80.9725 6.53734C80.4327 5.88366 79.823 5.67948 78.0306 5.55214L75.7693 5.39197V8.5016ZM127.437 5.99658C125.605 6.65133 123.305 9.11343 122.991 10.7574C122.861 11.4388 122.825 12.9626 122.912 14.1433C123.039 15.8605 123.294 16.5614 124.19 17.6483C125.608 19.3702 127.067 20.2086 129.128 20.4856C134.142 21.1599 137.862 17.5333 137.48 12.3432C137.116 7.4154 132.187 4.29998 127.437 5.99658Z" fill="#F8F8F8"/>
</svg>
