<svg width="1920" height="1076" viewBox="0 0 1920 1076" fill="none" xmlns="http://www.w3.org/2000/svg">
<g clip-path="url(#clip0_1_1431)">
<g opacity="0.55">
<circle cx="574.791" cy="574.791" r="574.791" transform="matrix(-1 0 0 1 1920 -50)" stroke="#66747F" stroke-opacity="0.5" stroke-width="1.47477"/>
<circle cx="191.72" cy="191.72" r="191.72" transform="matrix(-1 0 0 1 1725.48 906.977)" stroke="#66747F" stroke-opacity="0.5" stroke-width="1.47477"/>
<circle cx="191.72" cy="191.72" r="191.72" transform="matrix(-1 0 0 1 958.599 332.555)" stroke="#66747F" stroke-opacity="0.5" stroke-width="1.47477"/>
<circle cx="191.72" cy="191.72" r="191.72" transform="matrix(-1 0 0 1 383.44 524.275)" stroke="#66747F" stroke-opacity="0.5" stroke-width="1.47477"/>
<circle cx="191.72" cy="191.72" r="191.72" transform="matrix(-1 0 0 1 383.44 524.275)" stroke="#66747F" stroke-opacity="0.5" stroke-width="1.47477"/>
<circle cx="191.72" cy="191.72" r="191.72" transform="matrix(-1 0 0 1 383.44 524.275)" stroke="#66747F" stroke-opacity="0.5" stroke-width="1.47477"/>
<circle cx="95.8599" cy="95.8599" r="95.8599" transform="matrix(-1 0 0 1 287.578 811.854)" stroke="#66747F" stroke-opacity="0.5" stroke-width="1.47477"/>
<circle cx="191.719" cy="140.835" r="4.4243" fill="#66747F"/>
<circle cx="575.159" cy="140.835" r="4.4243" fill="#66747F"/>
<circle cx="958.599" cy="140.834" r="4.4243" fill="#66747F"/>
<circle cx="1342.04" cy="140.835" r="4.4243" fill="#66747F"/>
<circle cx="1725.48" cy="140.834" r="4.4243" fill="#66747F"/>
<circle cx="191.719" cy="524.274" r="4.4243" fill="#66747F"/>
<circle cx="191.719" cy="907.714" r="4.4243" fill="#66747F"/>
<circle cx="575.159" cy="524.274" r="4.4243" fill="#66747F"/>
<circle cx="575.159" cy="907.714" r="4.4243" fill="#66747F"/>
<circle cx="958.599" cy="524.274" r="4.4243" fill="#66747F"/>
<circle cx="958.599" cy="907.714" r="4.4243" fill="#66747F"/>
<circle cx="1342.04" cy="524.274" r="4.4243" fill="#66747F"/>
<circle cx="1342.04" cy="907.714" r="4.4243" fill="#66747F"/>
<circle cx="1725.48" cy="524.274" r="4.4243" fill="#66747F"/>
<circle cx="1725.48" cy="907.714" r="4.4243" fill="#66747F"/>
</g>
</g>
<defs>
<clipPath id="clip0_1_1431">
<rect width="1920" height="1076" fill="white"/>
</clipPath>
</defs>
</svg>
